<svg width="114" height="29" viewBox="0 0 114 29" fill="none" xmlns="http://www.w3.org/2000/svg">
<rect x="0.000488281" y="13.8119" width="32" height="1.54334" rx="0.771672" fill="#E3B873"/>
<rect x="82.0005" y="13.8119" width="32" height="1.54334" rx="0.771672" fill="#E3B873"/>
<path d="M73.8511 9.76541L49.7306 0.829184C49.4221 0.715178 49.0793 0.872936 48.9655 1.1817C48.9653 1.18195 48.9653 1.1822 48.965 1.18245L46.2949 8.45059C46.1814 8.75935 46.3396 9.10187 46.6484 9.21538H46.6489L49.4448 10.2419L48.8288 11.9203C48.7155 12.229 48.8738 12.5711 49.1825 12.6846L54.7753 14.7379L54.3643 15.8567C53.9908 16.8588 54.3393 17.9868 55.2134 18.6031V21.6433H47.1974C46.8094 20.7562 46.0154 20.1122 45.0671 19.9157V18.6646C45.0671 18.3356 44.8006 18.0688 44.4713 18.0688H42.0694C41.7404 18.0688 41.4736 18.3356 41.4736 18.6646V28.1964C41.4736 28.5257 41.7404 28.7922 42.0694 28.7922H44.4713C44.8006 28.7922 45.0671 28.5257 45.0671 28.1964V26.9456C46.0154 26.7488 46.8094 26.105 47.1974 25.2177H55.2134V25.8135C55.2134 26.8006 56.0134 27.6009 57.0005 27.6009C57.9875 27.6009 58.7878 26.8006 58.7878 25.8135V19.2139C59.3293 18.9454 59.7476 18.4796 59.9561 17.9121L60.3671 16.7933L65.4004 18.6401C65.4662 18.6644 65.5354 18.6766 65.6054 18.6766C65.8552 18.6766 66.0787 18.5209 66.1649 18.2864L66.3882 17.6781C68.3268 18.0428 70.1939 16.767 70.5584 14.8287C70.6932 14.1124 70.6057 13.3721 70.3077 12.7071L73.9191 10.8527C74.2119 10.7027 74.3276 10.3437 74.1776 10.0509C74.1096 9.91792 73.9941 9.81541 73.8541 9.76366L73.8511 9.76541ZM56.4047 19.1459L56.898 19.3247C57.1225 19.4052 57.358 19.4514 57.5962 19.4617V21.6433H56.4047V19.1459ZM43.8758 27.6009H42.6652V19.2604H43.8758V27.6009ZM46.2586 24.0264C46.2576 24.7835 45.7806 25.4582 45.0671 25.7118V21.1495C45.7806 21.4028 46.2576 22.0776 46.2586 22.8349V24.0264ZM47.4687 22.8349H57.5962V24.0264H47.4687V22.8349ZM57.0005 26.4093C56.6714 26.4093 56.4047 26.1425 56.4047 25.8135V25.2177H57.5962V25.8135C57.5962 26.1425 57.3295 26.4093 57.0005 26.4093ZM59.2488 16.383L58.8378 17.5018C58.6108 18.1189 57.9265 18.4354 57.309 18.2089L56.1884 17.7983C55.5709 17.5716 55.2539 16.887 55.4806 16.2693C55.4806 16.2693 55.4806 16.2693 55.4806 16.269L55.8919 15.1509L58.9116 16.2595L59.2488 16.383ZM65.2521 17.3183L50.1523 11.7735L50.5636 10.6547L59.5111 13.9404C59.7229 14.0174 59.9604 13.9691 60.1251 13.8151L61.797 12.2413L66.4842 13.9629L65.2521 17.3183ZM69.2801 14.9899C68.9026 16.0077 67.8873 16.6438 66.807 16.539L67.7275 14.0314L69.2311 13.2571C69.4664 13.8076 69.4839 14.4272 69.2801 14.9899ZM67.2693 12.9301C67.2377 12.9328 67.2065 12.9383 67.1757 12.9466L61.8642 10.9962C61.6525 10.9185 61.4149 10.9667 61.2504 11.1212L59.5766 12.6953L47.6187 8.30408L49.8773 2.15425L72.1675 10.4124L67.2693 12.9301Z" fill="#E3B873"/>
<path d="M53.1292 8.70325L52.6038 10.1232M55.419 9.54328L54.8935 10.9632M57.641 10.3698L57.1155 11.7897" stroke="#E3B873" stroke-linecap="round"/>
</svg>
